<mxfile host="Electron" agent="Mozilla/5.0 (Windows NT 10.0; Win64; x64) AppleWebKit/537.36 (KHTML, like Gecko) draw.io/24.7.5 Chrome/126.0.6478.183 Electron/31.3.0 Safari/537.36" version="24.7.5">
  <diagram name="PÃ¡gina-1" id="NqTCCo_IKjE3Xrh4ENiv">
    <mxGraphModel dx="880" dy="532" grid="1" gridSize="10" guides="1" tooltips="1" connect="1" arrows="1" fold="1" page="1" pageScale="1" pageWidth="850" pageHeight="1100" math="0" shadow="0">
      <root>
        <mxCell id="0" />
        <mxCell id="1" parent="0" />
        <mxCell id="D58ScgS2qJ9IQyCYa71D-9" style="edgeStyle=orthogonalEdgeStyle;rounded=0;orthogonalLoop=1;jettySize=auto;html=1;exitX=0.5;exitY=1;exitDx=0;exitDy=0;exitPerimeter=0;entryX=0.5;entryY=0;entryDx=0;entryDy=0;" edge="1" parent="1" source="D58ScgS2qJ9IQyCYa71D-1" target="D58ScgS2qJ9IQyCYa71D-2">
          <mxGeometry relative="1" as="geometry" />
        </mxCell>
        <mxCell id="D58ScgS2qJ9IQyCYa71D-1" value="INICIO" style="strokeWidth=2;html=1;shape=mxgraph.flowchart.start_1;whiteSpace=wrap;fillColor=#fa6800;fontColor=#000000;strokeColor=#C73500;" vertex="1" parent="1">
          <mxGeometry x="250" y="60" width="100" height="40" as="geometry" />
        </mxCell>
        <mxCell id="D58ScgS2qJ9IQyCYa71D-10" style="edgeStyle=orthogonalEdgeStyle;rounded=0;orthogonalLoop=1;jettySize=auto;html=1;exitX=0.5;exitY=1;exitDx=0;exitDy=0;entryX=0.5;entryY=0;entryDx=0;entryDy=0;" edge="1" parent="1" source="D58ScgS2qJ9IQyCYa71D-2" target="D58ScgS2qJ9IQyCYa71D-3">
          <mxGeometry relative="1" as="geometry" />
        </mxCell>
        <mxCell id="D58ScgS2qJ9IQyCYa71D-2" value="ORG 0X00" style="rounded=1;whiteSpace=wrap;html=1;absoluteArcSize=1;arcSize=14;strokeWidth=2;fillColor=#6d8764;strokeColor=#3A5431;fontColor=#ffffff;" vertex="1" parent="1">
          <mxGeometry x="240" y="130" width="120" height="30" as="geometry" />
        </mxCell>
        <mxCell id="D58ScgS2qJ9IQyCYa71D-12" style="edgeStyle=orthogonalEdgeStyle;rounded=0;orthogonalLoop=1;jettySize=auto;html=1;exitX=0.5;exitY=1;exitDx=0;exitDy=0;entryX=0.5;entryY=0;entryDx=0;entryDy=0;" edge="1" parent="1" source="D58ScgS2qJ9IQyCYa71D-3" target="D58ScgS2qJ9IQyCYa71D-4">
          <mxGeometry relative="1" as="geometry" />
        </mxCell>
        <mxCell id="D58ScgS2qJ9IQyCYa71D-3" value="CONFIGURAR REGISTROS" style="rounded=1;whiteSpace=wrap;html=1;absoluteArcSize=1;arcSize=14;strokeWidth=2;fillColor=#6d8764;fontColor=#ffffff;strokeColor=#3A5431;" vertex="1" parent="1">
          <mxGeometry x="240" y="190" width="120" height="40" as="geometry" />
        </mxCell>
        <mxCell id="D58ScgS2qJ9IQyCYa71D-13" style="edgeStyle=orthogonalEdgeStyle;rounded=0;orthogonalLoop=1;jettySize=auto;html=1;exitX=0.5;exitY=1;exitDx=0;exitDy=0;entryX=0.5;entryY=0;entryDx=0;entryDy=0;" edge="1" parent="1" source="D58ScgS2qJ9IQyCYa71D-4" target="D58ScgS2qJ9IQyCYa71D-5">
          <mxGeometry relative="1" as="geometry" />
        </mxCell>
        <mxCell id="D58ScgS2qJ9IQyCYa71D-4" value="MOVER EL DATO A IGUALRA 13 AL REGISTRO DE TRABAJO" style="rounded=1;whiteSpace=wrap;html=1;absoluteArcSize=1;arcSize=14;strokeWidth=2;fillColor=#6d8764;fontColor=#ffffff;strokeColor=#3A5431;" vertex="1" parent="1">
          <mxGeometry x="212.5" y="260" width="175" height="50" as="geometry" />
        </mxCell>
        <mxCell id="D58ScgS2qJ9IQyCYa71D-5" value="W=PORTA-W" style="rounded=1;whiteSpace=wrap;html=1;absoluteArcSize=1;arcSize=14;strokeWidth=2;fillColor=#6d8764;fontColor=#ffffff;strokeColor=#3A5431;" vertex="1" parent="1">
          <mxGeometry x="240" y="340" width="120" height="50" as="geometry" />
        </mxCell>
        <mxCell id="D58ScgS2qJ9IQyCYa71D-15" style="edgeStyle=orthogonalEdgeStyle;rounded=0;orthogonalLoop=1;jettySize=auto;html=1;exitX=0.5;exitY=1;exitDx=0;exitDy=0;exitPerimeter=0;entryX=0.5;entryY=0;entryDx=0;entryDy=0;" edge="1" parent="1" source="D58ScgS2qJ9IQyCYa71D-6" target="D58ScgS2qJ9IQyCYa71D-7">
          <mxGeometry relative="1" as="geometry" />
        </mxCell>
        <mxCell id="D58ScgS2qJ9IQyCYa71D-17" value="SI" style="edgeLabel;html=1;align=center;verticalAlign=middle;resizable=0;points=[];" vertex="1" connectable="0" parent="D58ScgS2qJ9IQyCYa71D-15">
          <mxGeometry x="-0.25" relative="1" as="geometry">
            <mxPoint as="offset" />
          </mxGeometry>
        </mxCell>
        <mxCell id="D58ScgS2qJ9IQyCYa71D-16" style="edgeStyle=orthogonalEdgeStyle;rounded=0;orthogonalLoop=1;jettySize=auto;html=1;exitX=1;exitY=0.5;exitDx=0;exitDy=0;exitPerimeter=0;entryX=0.5;entryY=0;entryDx=0;entryDy=0;" edge="1" parent="1" source="D58ScgS2qJ9IQyCYa71D-6" target="D58ScgS2qJ9IQyCYa71D-8">
          <mxGeometry relative="1" as="geometry" />
        </mxCell>
        <mxCell id="D58ScgS2qJ9IQyCYa71D-18" value="NO" style="edgeLabel;html=1;align=center;verticalAlign=middle;resizable=0;points=[];" vertex="1" connectable="0" parent="D58ScgS2qJ9IQyCYa71D-16">
          <mxGeometry x="-0.3333" relative="1" as="geometry">
            <mxPoint as="offset" />
          </mxGeometry>
        </mxCell>
        <mxCell id="D58ScgS2qJ9IQyCYa71D-6" value="Z=1" style="strokeWidth=2;html=1;shape=mxgraph.flowchart.decision;whiteSpace=wrap;fillColor=#f0a30a;fontColor=#000000;strokeColor=#BD7000;" vertex="1" parent="1">
          <mxGeometry x="245" y="430" width="110" height="60" as="geometry" />
        </mxCell>
        <mxCell id="D58ScgS2qJ9IQyCYa71D-19" style="edgeStyle=orthogonalEdgeStyle;rounded=0;orthogonalLoop=1;jettySize=auto;html=1;exitX=0.5;exitY=1;exitDx=0;exitDy=0;" edge="1" parent="1" source="D58ScgS2qJ9IQyCYa71D-7">
          <mxGeometry relative="1" as="geometry">
            <mxPoint x="300" y="240" as="targetPoint" />
            <Array as="points">
              <mxPoint x="300" y="600" />
              <mxPoint x="160" y="600" />
              <mxPoint x="160" y="240" />
            </Array>
          </mxGeometry>
        </mxCell>
        <mxCell id="D58ScgS2qJ9IQyCYa71D-7" value="PRENDER TODOS LOS LEDS DEL PUERTO B" style="rounded=1;whiteSpace=wrap;html=1;absoluteArcSize=1;arcSize=14;strokeWidth=2;fillColor=#6d8764;fontColor=#ffffff;strokeColor=#3A5431;" vertex="1" parent="1">
          <mxGeometry x="230" y="530" width="140" height="40" as="geometry" />
        </mxCell>
        <mxCell id="D58ScgS2qJ9IQyCYa71D-20" style="edgeStyle=orthogonalEdgeStyle;rounded=0;orthogonalLoop=1;jettySize=auto;html=1;exitX=0.5;exitY=1;exitDx=0;exitDy=0;" edge="1" parent="1" source="D58ScgS2qJ9IQyCYa71D-8">
          <mxGeometry relative="1" as="geometry">
            <mxPoint x="300" y="600" as="targetPoint" />
            <Array as="points">
              <mxPoint x="495" y="600" />
            </Array>
          </mxGeometry>
        </mxCell>
        <mxCell id="D58ScgS2qJ9IQyCYa71D-8" value="PRENDER&amp;nbsp; LOS LEDS PARES&amp;nbsp; DEL PUERTO B" style="rounded=1;whiteSpace=wrap;html=1;absoluteArcSize=1;arcSize=14;strokeWidth=2;fillColor=#6d8764;fontColor=#ffffff;strokeColor=#3A5431;" vertex="1" parent="1">
          <mxGeometry x="425" y="500" width="140" height="40" as="geometry" />
        </mxCell>
        <mxCell id="D58ScgS2qJ9IQyCYa71D-14" style="edgeStyle=orthogonalEdgeStyle;rounded=0;orthogonalLoop=1;jettySize=auto;html=1;exitX=0.5;exitY=1;exitDx=0;exitDy=0;entryX=0.5;entryY=0;entryDx=0;entryDy=0;entryPerimeter=0;" edge="1" parent="1" source="D58ScgS2qJ9IQyCYa71D-5" target="D58ScgS2qJ9IQyCYa71D-6">
          <mxGeometry relative="1" as="geometry" />
        </mxCell>
      </root>
    </mxGraphModel>
  </diagram>
</mxfile>
